<svg width="156" height="160" viewBox="0 0 156 160" fill="none" xmlns="http://www.w3.org/2000/svg">
<path d="M5.35921 11.2001C2.46889 11.2001 -2.23962e-07 8.49042 -2.23962e-07 5.35921C-2.23962e-07 2.40865 2.40865 -2.51957e-07 5.35921 -2.51957e-07C8.30978 -2.51957e-07 10.7184 2.40865 10.7184 5.35921C10.7184 8.43018 8.18931 11.2001 5.35921 11.2001ZM5.35921 1.14416C3.07105 1.14416 1.20432 3.01081 1.20432 5.29905C1.20432 7.7077 3.19145 9.93563 5.35921 9.93563C7.52698 9.93563 9.5141 7.70762 9.5141 5.29905C9.5141 3.07105 7.64738 1.14416 5.35921 1.14416Z" transform="translate(91.2158 57.6321) scale(4)" fill="#0005FF"/>
<path d="" transform="translate(91.2158 57.6321) scale(4)" stroke="#0005FF" stroke-width="3"/>
<path d="M20.4733 13.0538H0.602161C0.301119 13.0538 -1.86635e-08 12.8129 -1.86635e-08 12.4516V9.80214C-1.86635e-08 5.52685 2.58929 1.67308 6.56346 0.0472337C6.80434 -0.073168 7.10538 0.0472338 7.28602 0.288114C8.00859 1.37196 9.21291 2.03436 10.5376 2.03436C11.8624 2.03436 13.0667 1.37196 13.7892 0.288114C13.9699 0.0472338 14.271 -0.0129289 14.5118 0.0472337C18.4861 1.67308 21.0753 5.52685 21.0753 9.80214V12.4516C21.0754 12.7526 20.8345 13.0538 20.4733 13.0538ZM1.20432 11.8494H19.9313V9.7419C19.9313 6.06877 17.8238 2.81708 14.512 1.25148C13.5485 2.4558 12.1033 3.11813 10.5377 3.11813C8.97211 3.11813 7.5269 2.45573 6.56346 1.25148C3.25161 2.75684 1.14408 6.06869 1.14408 9.7419V11.8494H1.20432Z" transform="translate(70.502 103.93) scale(4)" fill="#0005FF"/>
<path d="" transform="translate(70.502 103.93) scale(4)" stroke="#0005FF" stroke-width="3"/>
<path d="M17.1012 15.3549H0.602161C0.301119 15.3549 0 15.114 0 14.7528V3.67313C0 1.68601 1.62584 5.22577e-07 3.67313 5.22577e-07H5.35914C5.47954 5.22577e-07 5.60002 0.0602394 5.72042 0.120402C7.58707 1.38496 10.1764 1.38496 12.0431 0.120402C12.1635 0.0601629 12.284 5.22577e-07 12.4044 5.22577e-07H14.0904C16.1377 5.22577e-07 17.7635 1.62584 17.7635 3.67313V14.7528C17.7034 15.0539 17.4625 15.3549 17.1012 15.3549ZM1.20432 14.1506H16.4991V3.67313C16.4991 2.28817 15.4152 1.20432 14.0303 1.20432H12.5248C10.3571 2.58929 7.4065 2.58929 5.17857 1.20432H3.67313C2.28817 1.20432 1.20432 2.28817 1.20432 3.67313V14.1506Z" transform="translate(0.651367 41.9761) scale(4)" fill="#0005FF"/>
<path d="" transform="translate(0.651367 41.9761) scale(4)" stroke="#0005FF" stroke-width="3"/>
<path d="M4.75705 9.51403C2.1076 9.51403 -2.09964e-08 7.34626 -2.09964e-08 4.75698C-2.09964e-08 2.16769 2.16777 -6.41556e-09 4.75705 -6.41556e-09C7.34634 -6.41556e-09 9.5141 2.16777 9.5141 4.75705C9.5141 7.34634 7.4065 9.51403 4.75705 9.51403ZM4.75705 1.14408C2.76993 1.14408 1.20432 2.76993 1.20432 4.69681C1.20432 6.6237 2.83017 8.24954 4.75705 8.24954C6.68394 8.24954 8.30978 6.6237 8.30978 4.69681C8.30978 2.76993 6.74418 1.14408 4.75705 1.14408Z" transform="translate(17.0303 3.19727) scale(4)" fill="#0005FF"/>
<path d="" transform="translate(17.0303 3.19727) scale(4)" stroke="#0005FF" stroke-width="3"/>
<path d="M10.4173 14.3916H0.602161C0.301119 14.3916 4.66586e-09 14.1507 4.66586e-09 13.7894V0.60216C4.66586e-09 0.301118 0.24088 1.11981e-07 0.602161 1.11981e-07H10.4173C10.7184 1.11981e-07 11.0195 0.240879 11.0195 0.60216V13.7894C10.9592 14.0904 10.7184 14.3916 10.4173 14.3916ZM1.14408 13.1872H9.75491V1.20432H1.14408V13.1872Z" transform="translate(14.1396 98.5786) scale(4)" fill="#0005FF"/>
<path d="" transform="translate(14.1396 98.5786) scale(4)" stroke="#0005FF" stroke-width="3"/>
<path d="M0.602161 9.21299C0.301119 9.21299 -2.05298e-07 8.97211 -2.05298e-07 8.61082V0.602161C-2.05298e-07 0.301119 0.24088 7.46538e-08 0.602161 7.46538e-08C0.963443 7.46538e-08 1.20432 0.24088 1.20432 0.602161V8.61082C1.20432 8.91194 0.903204 9.21299 0.602161 9.21299Z" transform="translate(51.7139 66.5439) scale(4)" fill="#0005FF"/>
<path d="" transform="translate(51.7139 66.5439) scale(4)" stroke="#0005FF" stroke-width="3"/>
<path d="M0.602161 9.21299C0.301119 9.21299 1.37643e-07 8.97211 1.37643e-07 8.61082V0.602161C1.37643e-07 0.301119 0.24088 7.46538e-08 0.602161 7.46538e-08C0.963443 7.46538e-08 1.20432 0.24088 1.20432 0.602161V8.61082C1.20432 8.91194 0.963443 9.21299 0.602161 9.21299Z" transform="translate(15.585 66.5439) scale(4)" fill="#0005FF"/>
<path d="" transform="translate(15.585 66.5439) scale(4)" stroke="#0005FF" stroke-width="3"/>
<path d="M0.602161 8.12914C0.301119 8.12914 1.11981e-07 7.88826 1.11981e-07 7.52698V0.602161C1.11981e-07 0.301119 0.24088 1.13847e-06 0.602161 1.13847e-06C0.963443 1.13847e-06 1.20432 0.24088 1.20432 0.602161V7.52698C1.20432 7.82802 0.903204 8.12914 0.602161 8.12914Z" transform="translate(33.6494 123.628) scale(4)" fill="#0005FF"/>
<path d="" transform="translate(33.6494 123.628) scale(4)" stroke="#0005FF" stroke-width="3"/>
<path d="M0.602161 0H0V1.20432H0.602161V0Z" transform="translate(52.6777 19.8169) scale(4)" fill="#0005FF"/>
<path d="" transform="translate(52.6777 19.8169) scale(4)" stroke="#0005FF" stroke-width="3"/>
<path d="M13.8496 8.3097H12.6452V7.16562H13.8496V8.3097ZM13.8496 6.02154H12.6452V4.87745H13.8496V6.02154ZM12.585 3.85377C12.5248 3.55273 12.4044 3.25161 12.284 2.95057L13.3678 2.40865C13.5484 2.76993 13.7291 3.19145 13.7893 3.61297L12.585 3.85377ZM11.742 2.16777C11.5012 1.92689 11.2603 1.74625 10.9592 1.5656L11.5614 0.541922C11.9227 0.782802 12.284 1.02368 12.5851 1.32472L11.742 2.16777ZM10.056 1.26449C9.81507 1.20425 9.57419 1.20425 9.33339 1.20425H9.03235V5.36574e-08H9.33339C9.63443 5.36574e-08 9.99579 0.0602392 10.2968 0.120402L10.056 1.26449ZM7.94842 1.20432H6.80434V5.36574e-08H7.94842V1.20432ZM5.66026 1.20432H4.51617V5.36574e-08H5.66026V1.20432ZM3.43225 1.20432H2.28817V5.36574e-08H3.43225V1.20432ZM1.14408 1.20432H4.66586e-08V5.36574e-08H1.14408V1.20432Z" transform="translate(59.6631 19.8169) scale(4)" fill="#F806A8"/>
<path d="" transform="translate(59.6631 19.8169) scale(4)" stroke="#F806A8" stroke-width="3"/>
<path d="M1.20432 0H0V0.602162H1.20432V0Z" transform="translate(110.244 57.6323) scale(4)" fill="#0005FF"/>
<path d="" transform="translate(110.244 57.6323) scale(4)" stroke="#0005FF" stroke-width="3"/>
</svg>
