<svg width="152" height="172" viewBox="0 0 152 172" fill="none" xmlns="http://www.w3.org/2000/svg">
<path d="M0.986009 3.26677C1.189 3.26677 1.37107 3.22282 1.52803 3.13704C1.69754 3.04496 1.8231 2.90684 1.90054 2.72895C1.9696 2.56988 2.00517 2.36482 2.00517 2.09902V0.261592C2.00517 0.117193 1.88798 6.89746e-08 1.74358 6.89746e-08H1.38781C1.24342 6.89746e-08 1.12622 0.117193 1.12622 0.261592V2.11995C1.12622 2.29364 1.10948 2.35642 1.1032 2.37107C1.09902 2.38363 1.09274 2.392 1.076 2.40246C1.05298 2.41711 1.02368 2.42339 0.983916 2.42339C0.919041 2.42339 0.900206 2.40456 0.893928 2.39619C0.893928 2.39619 0.854166 2.34178 0.845795 2.13669C0.843702 2.06344 0.808126 1.99438 0.751622 1.94625C0.695118 1.89811 0.621872 1.87719 0.548626 1.88765L0.226344 1.9316C0.0986872 1.94834 0.00242119 2.05716 0.000328447 2.18691C-0.00594977 2.52384 0.0777598 2.78962 0.251457 2.97588C0.427247 3.17052 0.674191 3.26677 0.986009 3.26677Z" transform="translate(39.0537 115.849) scale(4)" fill="#0005FF"/>
<path d="M0.647047 2.5766L0.642979 2.57957L0.344453 2.79772L0.340329 2.80074L0.194323 2.90743C0.194281 2.90738 0.194239 2.90732 0.194196 2.90726C0.238889 2.87465 0.28748 2.83918 0.340312 2.8006C0.341683 2.7996 0.343058 2.7986 0.344435 2.79759C0.431894 2.73374 0.530899 2.66143 0.642976 2.57955C0.64433 2.57856 0.645689 2.57759 0.647047 2.5766ZM0.647047 2.5766L0.79746 2.46668L0.890767 2.3985C0.858834 2.42183 0.827745 2.44455 0.797477 2.46667C0.744892 2.50509 0.69479 2.54172 0.647047 2.5766ZM0.58016 2.14753L0.576014 2.1524L0.58016 2.14753ZM0.58016 2.14753L0.580543 2.14708L0.58016 2.14753Z" transform="translate(39.0537 115.849) scale(4)" stroke="#0005FF" stroke-width="3"/>
<path d="M0.734551 3.09307C0.975216 3.24165 1.24936 3.3149 1.55281 3.3149C1.83115 3.3149 2.09274 3.24795 2.3334 3.11609C2.58244 2.98006 2.77499 2.77709 2.90891 2.51547C3.03866 2.26434 3.10355 1.97555 3.10355 1.66163C3.10355 1.35191 3.04077 1.06939 2.91937 0.822446C2.79171 0.565039 2.60546 0.359951 2.36063 0.215552C2.11997 0.0732458 1.85 1.53277e-07 1.55281 1.53277e-07C1.10078 1.53277e-07 0.721995 0.154863 0.433197 0.460403C0.146492 0.761757 1.27731e-07 1.17612 1.27731e-07 1.69093C1.27731e-07 1.96717 0.0606894 2.23086 0.179975 2.4778C0.307633 2.7373 0.493886 2.94448 0.734551 3.09307ZM1.08404 1.01916C1.21588 0.893599 1.37074 0.830817 1.55491 0.830817C1.68256 0.830817 1.79557 0.862208 1.89602 0.92499C1.99647 0.987773 2.06972 1.07567 2.12204 1.19286C2.18063 1.32261 2.20993 1.47957 2.20993 1.65954C2.20993 1.93788 2.14504 2.14924 2.01947 2.28736C1.89391 2.42339 1.74532 2.48617 1.54861 2.48617C1.35607 2.48617 1.20749 2.42339 1.08193 2.28946C0.952175 2.15134 0.889393 1.9588 0.889393 1.6993C0.8936 1.37074 0.956382 1.14054 1.08404 1.01916Z" transform="translate(48.0039 115.656) scale(4)" fill="#0005FF"/>
<path d="" transform="translate(48.0039 115.656) scale(4)" stroke="#0005FF" stroke-width="3"/>
<path d="M2.42758 0.952196C2.42758 0.778499 2.37944 0.613173 2.28318 0.45831C2.18482 0.299262 2.0467 0.179975 1.873 0.104637C1.71393 0.0355765 1.51724 -1.02185e-07 1.27239 -1.02185e-07H0.261593C0.117194 -1.02185e-07 2.55461e-07 0.117193 2.55461e-07 0.261592V2.95704C2.55461e-07 3.10144 0.117194 3.21863 0.261593 3.21863H1.28913C1.48375 3.21863 1.64701 3.20189 1.78929 3.16631C1.93997 3.12865 2.07181 3.06796 2.17645 2.98843C2.28736 2.90472 2.38154 2.78962 2.45269 2.64313C2.52382 2.49875 2.55942 2.34177 2.55942 2.17645C2.55942 1.9609 2.49664 1.77046 2.37526 1.60932C2.33968 1.56118 2.29783 1.51724 2.25388 1.47747C2.27062 1.45655 2.28527 1.43562 2.29783 1.4126C2.38363 1.27236 2.42758 1.11541 2.42758 0.952196ZM0.878951 0.843353H1.15728C1.38958 0.843353 1.4691 0.862187 1.48794 0.868466C1.51098 0.876836 1.52144 0.885208 1.52979 0.897764C1.54026 0.914506 1.55283 0.941711 1.55283 0.99403C1.55283 1.0317 1.54653 1.05891 1.534 1.07355C1.51935 1.09239 1.48796 1.10495 1.46285 1.11332C1.44822 1.1175 1.38332 1.13424 1.19916 1.13424H0.876879V0.843353H0.878951ZM1.64489 2.27899C1.63024 2.30411 1.61769 2.32085 1.60095 2.33131C1.58211 2.34177 1.54863 2.35852 1.48585 2.36898C1.47538 2.37107 1.42934 2.37735 1.29122 2.37735H0.881043V1.97345H1.24099C1.42934 1.97345 1.51724 1.99438 1.55281 2.00484C1.60095 2.02159 1.62187 2.04461 1.63441 2.06135C1.64699 2.08018 1.6658 2.11157 1.6658 2.17436C1.66582 2.2183 1.65954 2.25179 1.64489 2.27899Z" transform="translate(61.2383 115.849) scale(4)" fill="#0005FF"/>
<path d="" transform="translate(61.2383 115.849) scale(4)" stroke="#0005FF" stroke-width="3"/>
<path d="M9.5408 0.523185C9.69985 0.334838 9.87354 0.161141 10.0598 1.3284e-07H0.523185C0.234387 1.3284e-07 -3.19327e-08 0.234387 -3.19327e-08 0.523185C-3.19327e-08 0.811983 0.234387 1.04637 0.523185 1.04637H9.15573C9.27293 0.864301 9.40058 0.688532 9.5408 0.523185Z" transform="translate(38.9629 133.704) scale(4)" fill="#0005FF"/>
<path d="" transform="translate(38.9629 133.704) scale(4)" stroke="#0005FF" stroke-width="3"/>
<path d="M6.31798 1.3284e-07H0.523184C0.234386 1.3284e-07 1.27731e-07 0.234387 1.27731e-07 0.523185C1.27731e-07 0.811983 0.234386 1.04637 0.523184 1.04637H6.31798C6.60678 1.04637 6.84116 0.811983 6.84116 0.523185C6.84116 0.234408 6.60678 1.3284e-07 6.31798 1.3284e-07Z" transform="translate(72.5723 115.707) scale(4)" fill="#0005FF"/>
<path d="" transform="translate(72.5723 115.707) scale(4)" stroke="#0005FF" stroke-width="3"/>
<path d="M6.84116 0.523185C6.84116 0.234387 6.60678 1.53277e-07 6.31798 1.53277e-07H0.523184C0.234386 1.53277e-07 1.27731e-07 0.234387 1.27731e-07 0.523185C1.27731e-07 0.811983 0.234386 1.04637 0.523184 1.04637H6.31798C6.60678 1.04637 6.84116 0.811983 6.84116 0.523185Z" transform="translate(72.5723 124.571) scale(4)" fill="#0005FF"/>
<path d="" transform="translate(72.5723 124.571) scale(4)" stroke="#0005FF" stroke-width="3"/>
<path d="M-3.19327e-08 0.523185C-3.19327e-08 0.812004 0.234387 1.04637 0.523185 1.04637H8.42328C8.42957 0.868487 8.44632 0.694789 8.47143 0.523185C8.49864 0.345302 8.53421 0.171604 8.58023 -1.22621e-07H0.523185C0.234387 -1.22621e-07 -3.19327e-08 0.234387 -3.19327e-08 0.523185Z" transform="translate(38.9629 143.104) scale(4)" fill="#0005FF"/>
<path d="" transform="translate(38.9629 143.104) scale(4)" stroke="#0005FF" stroke-width="3"/>
<path d="M6.51472 -1.02185e-07H6.2029H5.95386H5.70483H1.22009H0.971052H0.722016H0.410198C0.184182 -1.02185e-07 -2.04369e-08 0.18416 -2.04369e-08 0.410176V0.675954C-2.04369e-08 0.90197 0.184182 1.08615 0.410198 1.08615H6.51263C6.73864 1.08615 6.92282 0.90197 6.92282 0.675954V0.410176C6.9228 0.184139 6.74073 -1.02185e-07 6.51472 -1.02185e-07Z" transform="translate(55.8301 165.656) scale(4)" fill="#0005FF"/>
<path d="" transform="translate(55.8301 165.656) scale(4)" stroke="#0005FF" stroke-width="3"/>
<path d="M7.04625 12.5397H7.29529H7.54432L7.44597 14.3248H11.8742L11.847 13.8288C11.4619 13.4584 11.1396 13.021 10.8969 12.5397C10.7337 12.2153 10.6081 11.8679 10.5223 11.5059C10.5223 11.5017 10.5202 11.4976 10.5202 11.4933H7.35179H7.10276H1.23681C1.13217 11.4933 1.04637 11.4075 1.04637 11.3029V1.23681C1.04637 1.13217 1.13217 1.04637 1.23681 1.04637H18.0813C18.1859 1.04637 18.2717 1.13217 18.2717 1.23681V6.93743C18.6986 7.32459 19.0544 7.78708 19.3181 8.30399V1.23681C19.3181 0.554576 18.7635 6.89746e-08 18.0813 6.89746e-08H1.23681C0.554576 6.89746e-08 0 0.554576 0 1.23681V11.3029C0 11.9851 0.554576 12.5397 1.23681 12.5397H7.04625Z" transform="translate(31.0439 106.264) scale(4)" fill="#0005FF"/>
<path d="" transform="translate(31.0439 106.264) scale(4)" stroke="#0005FF" stroke-width="3"/>
<path d="M8.0298 6.92699L7.84354 6.73653L7.71382 6.60468C7.69498 6.58587 7.67405 6.56701 7.65313 6.55027C7.7745 6.37239 7.88333 6.18404 7.9775 5.98733C8.237 5.44321 8.3814 4.83423 8.3814 4.19176C8.3814 3.13911 7.99215 2.17645 7.34968 1.4398C6.58164 0.558761 5.44947 5.10922e-09 4.19174 5.10922e-09C3.39022 5.10922e-09 2.64102 0.226016 2.00482 0.617358C1.75999 0.768035 1.52979 0.943825 1.32052 1.14054C1.14891 1.30168 0.991958 1.47538 0.849652 1.66373C0.556668 2.05088 0.32856 2.49036 0.182069 2.9675C0.12975 3.13702 0.0878948 3.31281 0.0585965 3.49069C0.0293191 3.66229 0.010464 3.83599 0.00418577 4.01387C0.00209304 4.07247 4.08738e-08 4.13316 4.08738e-08 4.19176C4.08738e-08 4.38638 0.0146497 4.57891 0.0397626 4.76726C0.0502263 4.85097 0.0648755 4.93259 0.0816174 5.0142C0.0983593 5.09373 0.115101 5.17116 0.136028 5.25068C0.136028 5.25487 0.138142 5.25905 0.140214 5.26326C0.23648 5.62949 0.382972 5.97688 0.569225 6.29705C0.663399 6.45612 0.765943 6.61096 0.878951 6.75536C0.96266 6.86209 1.05056 6.96673 1.14473 7.06509C1.22844 7.15298 1.31633 7.23878 1.40632 7.3204C2.14715 7.98171 3.12237 8.38351 4.19176 8.38351C5.06654 8.38351 5.87853 8.11357 6.55027 7.65524C6.56492 7.67198 6.57957 7.68872 6.59631 7.70547L6.73443 7.84566L6.92069 8.03401L8.04867 9.18292C8.20144 9.33987 8.40444 9.4173 8.60742 9.4173C8.80623 9.4173 9.00504 9.34197 9.15783 9.19129C9.46755 8.88784 9.47174 8.38977 9.16829 8.08214L8.0298 6.92699ZM6.9353 5.2528C6.78043 5.65042 6.54186 6.00618 6.24258 6.29917C5.71312 6.81398 4.98905 7.13415 4.19381 7.13415C3.39857 7.13415 2.67448 6.81607 2.14502 6.29917C1.84368 6.00618 1.60718 5.65042 1.45232 5.2528C1.32464 4.92424 1.2556 4.56638 1.2556 4.19385C1.2556 4.13318 1.25771 4.07458 1.26188 4.01597C1.27234 3.83599 1.29957 3.66231 1.34142 3.49278C1.38537 3.31073 1.44815 3.13702 1.52347 2.9696C1.77251 2.42548 2.1848 1.97138 2.69541 1.66582C3.13488 1.40423 3.6476 1.25355 4.1959 1.25355C4.7442 1.25355 5.25692 1.40423 5.69639 1.66582C6.5586 2.17854 7.1362 3.12027 7.1362 4.19385C7.13201 4.56638 7.06295 4.92424 6.9353 5.2528Z" transform="translate(74.7236 131.226) scale(4)" fill="#F806A8"/>
<path d="M8.09892 9.13401C8.09885 9.13394 8.09878 9.13387 8.09871 9.1338L8.09892 9.13401ZM8.09892 9.13401C8.09919 9.13428 8.09945 9.13456 8.09972 9.13483L8.09892 9.13401Z" transform="translate(74.7236 131.226) scale(4)" stroke="#F806A8" stroke-width="3"/>
<path d="M17.1012 15.3549H0.602161C0.301119 15.3549 0 15.114 0 14.7528V3.67313C0 1.68601 1.62584 5.22577e-07 3.67313 5.22577e-07H5.35914C5.47954 5.22577e-07 5.60002 0.0602394 5.72042 0.120402C7.58707 1.38496 10.1764 1.38496 12.0431 0.120402C12.1635 0.0601629 12.284 5.22577e-07 12.4044 5.22577e-07H14.0904C16.1377 5.22577e-07 17.7635 1.62584 17.7635 3.67313V14.7528C17.7034 15.0539 17.4625 15.3549 17.1012 15.3549ZM1.20432 14.1506H16.4991V3.67313C16.4991 2.28817 15.4152 1.20432 14.0303 1.20432H12.5248C10.3571 2.58929 7.4065 2.58929 5.17857 1.20432H3.67313C2.28817 1.20432 1.20432 2.28817 1.20432 3.67313V14.1506Z" transform="translate(3.98828 40.8442) scale(4)" fill="#0005FF"/>
<path d="" transform="translate(3.98828 40.8442) scale(4)" stroke="#0005FF" stroke-width="3"/>
<path d="M4.75705 9.51403C2.1076 9.51403 -2.09964e-08 7.34626 -2.09964e-08 4.75698C-2.09964e-08 2.16769 2.16777 -6.41556e-09 4.75705 -6.41556e-09C7.34634 -6.41556e-09 9.5141 2.16777 9.5141 4.75705C9.5141 7.34634 7.4065 9.51403 4.75705 9.51403ZM4.75705 1.14408C2.76993 1.14408 1.20432 2.76993 1.20432 4.69681C1.20432 6.6237 2.83017 8.24954 4.75705 8.24954C6.68394 8.24954 8.30978 6.6237 8.30978 4.69681C8.30978 2.76993 6.74418 1.14408 4.75705 1.14408Z" transform="translate(20.3672 2.06494) scale(4)" fill="#0005FF"/>
<path d="" transform="translate(20.3672 2.06494) scale(4)" stroke="#0005FF" stroke-width="3"/>
<path d="M0.602161 9.21299C0.301119 9.21299 -2.05298e-07 8.97211 -2.05298e-07 8.61082V0.602161C-2.05298e-07 0.301119 0.24088 7.46538e-08 0.602161 7.46538e-08C0.963443 7.46538e-08 1.20432 0.24088 1.20432 0.602161V8.61082C1.20432 8.91194 0.903204 9.21299 0.602161 9.21299Z" transform="translate(55.0508 65.4116) scale(4)" fill="#0005FF"/>
<path d="" transform="translate(55.0508 65.4116) scale(4)" stroke="#0005FF" stroke-width="3"/>
<path d="M0.602161 9.21299C0.301119 9.21299 1.37643e-07 8.97211 1.37643e-07 8.61082V0.602161C1.37643e-07 0.301119 0.24088 7.46538e-08 0.602161 7.46538e-08C0.963443 7.46538e-08 1.20432 0.24088 1.20432 0.602161V8.61082C1.20432 8.91194 0.963443 9.21299 0.602161 9.21299Z" transform="translate(18.9219 65.4116) scale(4)" fill="#0005FF"/>
<path d="" transform="translate(18.9219 65.4116) scale(4)" stroke="#0005FF" stroke-width="3"/>
<path d="M17.1012 15.3549H0.602161C0.301119 15.3549 0 15.114 0 14.7528V3.67313C0 1.68601 1.62584 5.22577e-07 3.67313 5.22577e-07H5.35914C5.47954 5.22577e-07 5.60002 0.0602394 5.72042 0.120402C7.58707 1.38496 10.1764 1.38496 12.0431 0.120402C12.1635 0.0601629 12.284 5.22577e-07 12.4044 5.22577e-07H14.0904C16.1377 5.22577e-07 17.7635 1.62584 17.7635 3.67313V14.7528C17.7034 15.0539 17.4625 15.3549 17.1012 15.3549ZM1.20432 14.1506H16.4991V3.67313C16.4991 2.28817 15.4152 1.20432 14.0303 1.20432H12.5248C10.3571 2.58929 7.4065 2.58929 5.17857 1.20432H3.67313C2.28817 1.20432 1.20432 2.28817 1.20432 3.67313V14.1506Z" transform="translate(77.3311 40.8442) scale(4)" fill="#0005FF"/>
<path d="" transform="translate(77.3311 40.8442) scale(4)" stroke="#0005FF" stroke-width="3"/>
<path d="M4.75705 9.51403C2.1076 9.51403 -2.09964e-08 7.34626 -2.09964e-08 4.75698C-2.09964e-08 2.16769 2.16777 -6.41556e-09 4.75705 -6.41556e-09C7.34634 -6.41556e-09 9.5141 2.16777 9.5141 4.75705C9.5141 7.34634 7.4065 9.51403 4.75705 9.51403ZM4.75705 1.14408C2.76993 1.14408 1.20432 2.76993 1.20432 4.69681C1.20432 6.6237 2.83017 8.24954 4.75705 8.24954C6.68394 8.24954 8.30978 6.6237 8.30978 4.69681C8.30978 2.76993 6.74418 1.14408 4.75705 1.14408Z" transform="translate(93.71 2.06494) scale(4)" fill="#0005FF"/>
<path d="" transform="translate(93.71 2.06494) scale(4)" stroke="#0005FF" stroke-width="3"/>
<path d="M0.602161 9.21299C0.301119 9.21299 -2.05298e-07 8.97211 -2.05298e-07 8.61082V0.602161C-2.05298e-07 0.301119 0.24088 7.46538e-08 0.602161 7.46538e-08C0.963443 7.46538e-08 1.20432 0.24088 1.20432 0.602161V8.61082C1.20432 8.91194 0.903204 9.21299 0.602161 9.21299Z" transform="translate(128.394 65.4116) scale(4)" fill="#0005FF"/>
<path d="" transform="translate(128.394 65.4116) scale(4)" stroke="#0005FF" stroke-width="3"/>
<path d="M0.602161 9.21299C0.301119 9.21299 1.37643e-07 8.97211 1.37643e-07 8.61082V0.602161C1.37643e-07 0.301119 0.24088 7.46538e-08 0.602161 7.46538e-08C0.963443 7.46538e-08 1.20432 0.24088 1.20432 0.602161V8.61082C1.20432 8.91194 0.963443 9.21299 0.602161 9.21299Z" transform="translate(92.2646 65.4116) scale(4)" fill="#0005FF"/>
<path d="" transform="translate(92.2646 65.4116) scale(4)" stroke="#0005FF" stroke-width="3"/>
</svg>
