<svg width="40" height="80" viewBox="0 0 40 80" fill="none" xmlns="http://www.w3.org/2000/svg">
<path d="M1.88919 3.62724C1.88919 4.09923 1.88919 6.20588 1.88919 6.20588H-3.72088e-08V9.35906H1.88919V18.7292H5.77V9.35932H8.3742C8.3742 9.35932 8.6181 7.8474 8.73632 6.19426C8.39737 6.19426 5.78467 6.19426 5.78467 6.19426C5.78467 6.19426 5.78467 4.35984 5.78467 4.03831C5.78467 3.71608 6.2078 3.28263 6.62601 3.28263C7.04343 3.28263 7.92443 3.28263 8.74041 3.28263C8.74041 2.85332 8.74041 1.36997 8.74041 1.12656e-08C7.65109 1.12656e-08 6.41181 1.12656e-08 5.86554 1.12656e-08C1.79327 -0.000217713 1.88919 3.15609 1.88919 3.62724Z" transform="translate(3.07227 1.41602) scale(4)" fill="white"/>
</svg>
