<svg width="40" height="32" viewBox="0 0 40 32" fill="none" xmlns="http://www.w3.org/2000/svg">
<path d="M0.304296 4.6953V0.152148C0.304296 0.0681013 0.236194 5.57182e-08 0.152148 5.57182e-08C0.0681014 5.57182e-08 0 0.0681013 0 0.152148V4.6953C0 4.77935 0.0681014 4.84745 0.152148 4.84745C0.236194 4.84745 0.304296 4.77935 0.304296 4.6953Z" transform="translate(20.0488 7.677) scale(4)" fill="#0E0519"/>
<path d="M9.28102 0.682758C8.95936 0.682758 8.55854 0.543959 8.13417 0.397025C7.59674 0.210918 6.98756 -1.11436e-08 6.3558 -1.11436e-08C5.62478 -1.11436e-08 5.17881 0.320342 4.93343 0.589076C4.84165 0.689615 4.77053 0.790357 4.7166 0.879719C4.66268 0.790357 4.59156 0.689615 4.49978 0.589076C4.25438 0.320342 3.80842 -1.11436e-08 3.0774 -1.11436e-08C2.44563 -1.11436e-08 1.83647 0.210918 1.29904 0.397025C0.874627 0.543959 0.473809 0.682758 0.152148 0.682758C0.0681014 0.682758 0 0.75086 0 0.834906V6.96326C0 7.04731 0.0681014 7.11541 0.152148 7.11541C0.525012 7.11541 0.949342 6.96847 1.39856 6.81292C1.91333 6.63468 2.49679 6.43265 3.07736 6.43265C3.57519 6.43265 3.97814 6.5975 4.27503 6.92261C4.33167 6.98464 4.42793 6.989 4.48999 6.93234C4.55204 6.87568 4.55638 6.77945 4.49972 6.71739C4.25432 6.44868 3.80836 6.12833 3.07736 6.12833C2.44558 6.12833 1.83642 6.33925 1.299 6.52536C0.939219 6.64998 0.596339 6.76867 0.304296 6.80194V0.979508C0.638838 0.947638 1.00935 0.819327 1.39856 0.684564C1.91333 0.506328 2.49679 0.304296 3.07736 0.304296C4.25156 0.304296 4.55878 1.2367 4.57113 1.27589C4.59077 1.33975 4.64976 1.38337 4.71658 1.38337C4.78341 1.38337 4.8424 1.33977 4.86204 1.27589C4.865 1.26617 5.1741 0.304296 6.3558 0.304296C6.93638 0.304296 7.51984 0.506328 8.03461 0.684564C8.42384 0.819347 8.79433 0.947638 9.12887 0.979508V6.80194C8.83683 6.76867 8.49395 6.64998 8.13417 6.52538C7.59674 6.33927 6.98756 6.12835 6.3558 6.12835C5.62476 6.12835 5.17879 6.4487 4.93343 6.71743C4.87677 6.77951 4.88113 6.87572 4.94316 6.93238C5.00524 6.98904 5.10148 6.98468 5.15812 6.92265C5.45501 6.59752 5.85796 6.43267 6.3558 6.43267C6.93638 6.43267 7.51984 6.6347 8.03461 6.81294C8.48385 6.96849 8.90818 7.11543 9.28102 7.11543C9.36507 7.11543 9.43317 7.04733 9.43317 6.96328V0.834906C9.43317 0.75088 9.36507 0.682758 9.28102 0.682758Z" transform="translate(1.79102 0.98291) scale(4)" fill="#0E0519"/>
<path d="M9.28102 0.682758C8.95936 0.682758 8.55854 0.543959 8.13417 0.397025C7.59674 0.210918 6.98756 -2.62495e-07 6.3558 -2.62495e-07C5.66925 -2.62495e-07 5.23415 0.282549 4.98047 0.539537L4.45268 0.539516C4.199 0.282528 3.76387 -2.62495e-07 3.07736 -2.62495e-07C2.44558 -2.62495e-07 1.83642 0.210918 1.299 0.397025C0.874627 0.543959 0.473809 0.682758 0.152148 0.682758C0.0681014 0.682758 0 0.75086 0 0.834906C0 0.918953 0.0681014 0.987054 0.152148 0.987054C0.525012 0.987054 0.949342 0.84012 1.39856 0.684564C1.91333 0.506328 2.49679 0.304295 3.07736 0.304295C3.57519 0.304295 3.97814 0.469143 4.27503 0.794252C4.30386 0.825818 4.34463 0.843792 4.38738 0.843792L5.04575 0.843812C5.08849 0.843812 5.12927 0.825818 5.1581 0.794273C5.45499 0.469143 5.85794 0.304295 6.35578 0.304295C6.93636 0.304295 7.51982 0.506328 8.03458 0.684564C8.48383 0.84012 8.90816 0.987054 9.281 0.987054C9.36505 0.987054 9.43315 0.918953 9.43315 0.834906C9.43315 0.75086 9.36507 0.682758 9.28102 0.682758Z" transform="translate(1.79102 27.9308) scale(4)" fill="#0E0519"/>
</svg>
