<svg width="48" height="52" viewBox="0 0 48 52" fill="none" xmlns="http://www.w3.org/2000/svg">
<path d="M3.25773 2.37261C3.53171 2.12281 3.70506 1.7642 3.70506 1.36502C3.70506 0.612506 3.09275 0 2.34004 0C1.58733 0 0.975017 0.612506 0.975017 1.36502C0.975017 1.7642 1.14838 2.12281 1.42235 2.37261C0.613286 2.52861 0 3.24115 0 4.09507V4.87508C0 4.98292 0.0873615 5.07009 0.195003 5.07009H4.48508C4.59272 5.07009 4.68008 4.98292 4.68008 4.87508V4.09507C4.68008 3.24115 4.0668 2.52861 3.25773 2.37261ZM1.36502 1.36502C1.36502 0.827399 1.80242 0.390007 2.34004 0.390007C2.87766 0.390007 3.31506 0.827399 3.31506 1.36502C3.31506 1.90265 2.87766 2.34004 2.34004 2.34004C1.80242 2.34004 1.36502 1.90265 1.36502 1.36502ZM4.29007 4.68008H0.390007V4.09507C0.390007 3.34255 1.00232 2.73005 1.75503 2.73005H2.92505C3.67776 2.73005 4.29007 3.34255 4.29007 4.09507V4.68008Z" transform="translate(14.6709 3.13501) scale(4)" fill="#0E0519"/>
<path d="M3.25773 2.37261C3.53171 2.12281 3.70506 1.7642 3.70506 1.36502C3.70506 0.612506 3.09275 0 2.34004 0C1.58733 0 0.975017 0.612506 0.975017 1.36502C0.975017 1.7642 1.14837 2.12281 1.42235 2.37261C0.613286 2.52861 0 3.24115 0 4.09507V4.87508C0 4.98292 0.0873615 5.07009 0.195003 5.07009H4.48508C4.59272 5.07009 4.68008 4.98292 4.68008 4.87508V4.09507C4.68008 3.24115 4.0668 2.52861 3.25773 2.37261ZM1.36502 1.36502C1.36502 0.827399 1.80242 0.390007 2.34004 0.390007C2.87766 0.390007 3.31506 0.827399 3.31506 1.36502C3.31506 1.90265 2.87766 2.34004 2.34004 2.34004C1.80242 2.34004 1.36502 1.90265 1.36502 1.36502ZM4.29007 4.68008H0.390007V4.09507C0.390007 3.34255 1.00232 2.73005 1.75503 2.73005H2.92505C3.67776 2.73005 4.29007 3.34255 4.29007 4.09507V4.68008Z" transform="translate(0.630859 29.6555) scale(4)" fill="#0E0519"/>
<path d="M3.25773 2.37261C3.53171 2.12281 3.70506 1.7642 3.70506 1.36502C3.70506 0.612506 3.09275 0 2.34004 0C1.58733 0 0.975017 0.612506 0.975017 1.36502C0.975017 1.7642 1.14837 2.12281 1.42235 2.37261C0.613285 2.52861 0 3.24115 0 4.09507V4.87508C0 4.98292 0.0873615 5.07009 0.195003 5.07009H4.48508C4.59272 5.07009 4.68008 4.98292 4.68008 4.87508V4.09507C4.68008 3.24115 4.0668 2.52861 3.25773 2.37261ZM1.36502 1.36502C1.36502 0.827399 1.80242 0.390007 2.34004 0.390007C2.87766 0.390007 3.31506 0.827399 3.31506 1.36502C3.31506 1.90265 2.87766 2.34004 2.34004 2.34004C1.80242 2.34004 1.36502 1.90265 1.36502 1.36502ZM4.29007 4.68008H0.390007V4.09507C0.390007 3.34255 1.00232 2.73005 1.75503 2.73005H2.92505C3.67776 2.73005 4.29007 3.34255 4.29007 4.09507V4.68008Z" transform="translate(28.7119 29.6555) scale(4)" fill="#0E0519"/>
<path d="M0.389617 8.03389e-08L-1.78531e-08 0.0152105C0.00526507 0.149568 0.0159903 0.28568 0.0319805 0.419452L0.419257 0.373042C0.404437 0.249604 0.394492 0.124022 0.389617 8.03389e-08Z" transform="translate(3.76758 28.0704) scale(4)" fill="#0E0519"/>
<path d="M0.0317856 -1.24972e-07C0.0159903 0.132992 0.00507007 0.26891 -1.78531e-08 0.404047L0.389617 0.419257C0.394492 0.294455 0.404437 0.169068 0.419062 0.0460207L0.0317856 -1.24972e-07Z" transform="translate(3.76758 24.895) scale(4)" fill="#0E0519"/>
<path d="M0.31259 -3.12429e-08C0.205924 0.0813164 0.100817 0.168288 -6.24858e-08 0.25877L0.260719 0.548935C0.353541 0.465473 0.450458 0.385132 0.548935 0.31025L0.31259 -3.12429e-08Z" transform="translate(10.4873 11.1832) scale(4)" fill="#0E0519"/>
<path d="M0.157953 5.95103e-08C0.100622 0.121877 0.0475808 0.247459 1.26459e-08 0.374016L0.365046 0.511104C0.408922 0.394492 0.457868 0.27866 0.510714 0.166533L0.157953 5.95103e-08Z" transform="translate(5.04395 18.6807) scale(4)" fill="#0E0519"/>
<path d="M0.0959416 -8.92655e-09C0.058891 0.128897 0.0267155 0.261695 3.0499e-08 0.393907L0.382402 0.470933C0.406972 0.349056 0.436613 0.226594 0.470933 0.107447L0.0959416 -8.92655e-09Z" transform="translate(4.14941 21.7173) scale(4)" fill="#0E0519"/>
<path d="M0.26735 2.38041e-08C0.173943 0.0982817 0.0842415 0.200659 4.46327e-09 0.304595L0.30323 0.54991C0.380842 0.453968 0.463913 0.359196 0.550105 0.26852L0.26735 2.38041e-08Z" transform="translate(8.25586 13.3508) scale(4)" fill="#0E0519"/>
<path d="M0.349836 1.93409e-08C0.231859 0.0629861 0.114272 0.132212 2.52919e-08 0.205729L0.211384 0.533724C0.316686 0.465668 0.425107 0.401902 0.533529 0.343986L0.349836 1.93409e-08Z" transform="translate(13.0635 9.43054) scale(4)" fill="#0E0519"/>
<path d="M0.215674 1.48776e-07C0.139427 0.111347 0.0668862 0.226789 -5.20715e-09 0.343596L0.338331 0.537429C0.399952 0.429787 0.467033 0.32312 0.537429 0.220549L0.215674 1.48776e-07Z" transform="translate(6.4248 15.8688) scale(4)" fill="#0E0519"/>
<path d="M0.0770262 2.91601e-07L1.1307e-07 0.382402C0.131237 0.408922 0.26618 0.430177 0.400927 0.445973L0.446168 0.0586961C0.322341 0.0440708 0.197928 0.0243757 0.0770262 2.91601e-07Z" transform="translate(20.0273 45.6707) scale(4)" fill="#0E0519"/>
<path d="M0.369726 8.92655e-08C0.248629 0.0245705 0.124412 0.0446557 -2.38041e-07 0.059866L0.0469958 0.447143C0.181548 0.430762 0.316101 0.408922 0.447143 0.382401L0.369726 8.92655e-08Z" transform="translate(26.2969 45.6614) scale(4)" fill="#0E0519"/>
<path d="M0.389812 -8.92655e-08C0.265205 0.004875 0.139232 0.00546043 0.0154053 0.000585343L-1.01168e-07 0.390202C0.064936 0.392932 0.130457 0.394102 0.196758 0.394102C0.26657 0.393712 0.336186 0.392347 0.405412 0.389617L0.389812 -8.92655e-08Z" transform="translate(23.2461 46.0201) scale(4)" fill="#0E0519"/>
<path d="M0.260525 -2.38041e-08L2.91601e-07 0.290165C0.0928219 0.373626 0.182913 0.461378 0.26813 0.55108L0.551275 0.28295C0.458843 0.185448 0.361146 0.0902865 0.260525 -2.38041e-08Z" transform="translate(36.5361 12.2245) scale(4)" fill="#0E0519"/>
<path d="M0.30323 -7.43879e-09L6.54613e-08 0.245314C0.0778064 0.341451 0.153078 0.442658 0.223669 0.545619L0.54523 0.325071C0.468788 0.213724 0.387472 0.104327 0.30323 -7.43879e-09Z" transform="translate(38.5967 14.574) scale(4)" fill="#0E0519"/>
<path d="M0.389617 2.38041e-08L-1.96384e-07 0.0152101C0.00253485 0.0766362 0.00370506 0.138647 0.00370506 0.200463C0.00370506 0.26384 0.00253485 0.326826 -1.96384e-07 0.389812L0.389617 0.405022C0.392347 0.337161 0.393712 0.268909 0.393712 0.200073C0.393712 0.133187 0.392347 0.0663012 0.389617 2.38041e-08Z" transform="translate(42.7363 26.5135) scale(4)" fill="#0E0519"/>
<path d="M0.338526 -1.84482e-07L2.97552e-08 0.194028C0.0618161 0.301865 0.119927 0.413602 0.172968 0.525924L0.525729 0.359391C0.468398 0.237709 0.405412 0.116807 0.338526 -1.84482e-07Z" transform="translate(40.2871 17.2469) scale(4)" fill="#0E0519"/>
<path d="M0.365047 -1.39849e-07L-8.33144e-08 0.137282C0.0436807 0.253504 0.0830716 0.373042 0.117392 0.492384L0.492384 0.384937C0.455333 0.255454 0.412432 0.125972 0.365047 -1.39849e-07Z" transform="translate(41.5605 20.1798) scale(4)" fill="#0E0519"/>
<path d="M0.382206 2.38041e-08L-2.38041e-08 0.0768312C0.0245704 0.198903 0.0444611 0.323315 0.0588914 0.446558L0.446168 0.400537C0.430373 0.267154 0.408922 0.132407 0.382206 2.38041e-08Z" transform="translate(42.3838 23.296) scale(4)" fill="#0E0519"/>
<path d="M0.211189 2.23164e-08L2.26139e-07 0.327996C0.104132 0.395077 0.207094 0.467423 0.30635 0.543279L0.543085 0.233029C0.435638 0.150933 0.324096 0.0727363 0.211189 2.23164e-08Z" transform="translate(34.1592 10.2565) scale(4)" fill="#0E0519"/>
<path d="M0.156198 -2.15725e-08L1.24972e-07 0.357246C0.113687 0.406972 0.226789 0.461963 0.336576 0.520854L0.521049 0.177258C0.402292 0.113297 0.27944 0.0536259 0.156198 -2.15725e-08Z" transform="translate(31.5215 8.72461) scale(4)" fill="#0E0519"/>
</svg>
