<svg width="44" height="52" viewBox="0 0 44 52" fill="none" xmlns="http://www.w3.org/2000/svg">
<path d="M1.35691 0.586782C1.25566 0.586782 1.17354 0.668873 1.17354 0.770155C1.17354 0.992594 0.992571 1.17356 0.770132 1.17356C0.547692 1.17356 0.366722 0.992594 0.366722 0.770155C0.366722 0.547715 0.547692 0.366745 0.770132 0.366745C0.87139 0.366745 0.953504 0.284654 0.953504 0.183372C0.953504 0.0820909 0.871413 -2.09408e-08 0.770132 -2.09408e-08C0.345473 -2.09408e-08 -5.86342e-08 0.345496 -5.86342e-08 0.770132C-5.86342e-08 1.19477 0.345496 1.54026 0.770132 1.54026C1.19477 1.54026 1.54026 1.19477 1.54026 0.770132C1.54029 0.668873 1.45817 0.586782 1.35691 0.586782Z" transform="translate(7.78125 10.1667) scale(4)" fill="#0E0519"/>
<path d="M1.35691 0.586782C1.25566 0.586782 1.17354 0.668873 1.17354 0.770154C1.17354 0.992594 0.992571 1.17356 0.770132 1.17356C0.547692 1.17356 0.366722 0.992594 0.366722 0.770154C0.366722 0.547715 0.547692 0.366745 0.770132 0.366745C0.87139 0.366745 0.953504 0.284654 0.953504 0.183372C0.953504 0.082091 0.871413 7.25948e-08 0.770132 7.25948e-08C0.345473 7.25948e-08 -5.86342e-08 0.345496 -5.86342e-08 0.770132C-5.86342e-08 1.19477 0.345496 1.54026 0.770132 1.54026C1.19477 1.54026 1.54026 1.19477 1.54026 0.770132C1.54029 0.668896 1.45817 0.586782 1.35691 0.586782Z" transform="translate(7.78125 18.7726) scale(4)" fill="#0E0519"/>
<path d="M1.5525 1.5915e-07H0.183372C0.0821138 1.5915e-07 -2.23369e-08 0.0820911 -2.23369e-08 0.183372C-2.23369e-08 0.284654 0.0820909 0.366745 0.183372 0.366745H1.5525C1.65376 0.366745 1.73587 0.284654 1.73587 0.183372C1.73587 0.0820911 1.65378 1.5915e-07 1.5525 1.5915e-07Z" transform="translate(15.6045 22.6846) scale(4)" fill="#0E0519"/>
<path d="M1.5525 1.17268e-07H0.183372C0.0821138 1.17268e-07 -2.23369e-08 0.082091 -2.23369e-08 0.183372C-2.23369e-08 0.284654 0.0820909 0.366745 0.183372 0.366745H1.5525C1.65376 0.366745 1.73587 0.284654 1.73587 0.183372C1.73587 0.082091 1.65378 1.17268e-07 1.5525 1.17268e-07Z" transform="translate(15.6045 19.5551) scale(4)" fill="#0E0519"/>
<path d="M1.16133 7.8179e-08H0.183372C0.0821138 7.8179e-08 -2.23369e-08 0.082091 -2.23369e-08 0.183372C-2.23369e-08 0.284654 0.0820909 0.366745 0.183372 0.366745H1.16133C1.26259 0.366745 1.3447 0.284654 1.3447 0.183372C1.3447 0.082091 1.26259 7.8179e-08 1.16133 7.8179e-08Z" transform="translate(15.6045 31.2904) scale(4)" fill="#0E0519"/>
<path d="M1.5525 -1.50774e-07H0.183372C0.0821138 -1.50774e-07 -2.23369e-08 0.0820908 -2.23369e-08 0.183372C-2.23369e-08 0.284654 0.0820909 0.366745 0.183372 0.366745H1.5525C1.65376 0.366745 1.73587 0.284654 1.73587 0.183372C1.73587 0.0820908 1.65378 -1.50774e-07 1.5525 -1.50774e-07Z" transform="translate(15.6045 28.161) scale(4)" fill="#0E0519"/>
<path d="M3.31282 7.8179e-08H0.183372C0.0821138 7.8179e-08 -2.23369e-08 0.082091 -2.23369e-08 0.183372C-2.23369e-08 0.284654 0.0820909 0.366745 0.183372 0.366745H3.3128C3.41406 0.366745 3.49617 0.284654 3.49617 0.183372C3.49617 0.082091 3.41408 7.8179e-08 3.31282 7.8179e-08Z" transform="translate(15.6045 14.0785) scale(4)" fill="#0E0519"/>
<path d="M2.53046 3.62974e-08H0.183372C0.0821138 3.62974e-08 -2.23369e-08 0.082091 -2.23369e-08 0.183372C-2.23369e-08 0.284654 0.0820909 0.366745 0.183372 0.366745H2.53046C2.63171 0.366745 2.71383 0.284654 2.71383 0.183372C2.71383 0.082091 2.63174 3.62974e-08 2.53046 3.62974e-08Z" transform="translate(15.6045 10.949) scale(4)" fill="#0E0519"/>
<path d="M1.35691 0.586783C1.25566 0.586783 1.17354 0.668874 1.17354 0.770155C1.17354 0.992594 0.992571 1.17356 0.770132 1.17356C0.547692 1.17356 0.366722 0.992594 0.366722 0.770155C0.366722 0.547716 0.547692 0.366744 0.770132 0.366744C0.87139 0.366744 0.953504 0.284653 0.953504 0.183372C0.953504 0.0820907 0.871413 -1.95447e-07 0.770132 -1.95447e-07C0.345473 -1.95447e-07 -5.86342e-08 0.345496 -5.86342e-08 0.770132C-5.86342e-08 1.19477 0.345496 1.54026 0.770132 1.54026C1.19477 1.54026 1.54026 1.19477 1.54026 0.770132C1.54029 0.668873 1.45817 0.586783 1.35691 0.586783Z" transform="translate(7.78125 27.3787) scale(4)" fill="#0E0519"/>
<path d="M7.2246 0H0.574545C0.257755 0 -4.04855e-08 0.257732 -4.04855e-08 0.574545V8.78932C-4.04855e-08 9.10613 0.257732 9.36386 0.574545 9.36386H3.89958C4.00084 9.36386 4.08296 9.28177 4.08296 9.18049C4.08296 9.07923 4.00087 8.99712 3.89958 8.99712H0.574545C0.459952 8.99712 0.366722 8.90389 0.366722 8.78929V0.574545C0.366722 0.459952 0.459952 0.366722 0.574545 0.366722H7.2246C7.33919 0.366722 7.43242 0.459952 7.43242 0.574545V6.63786C7.43242 6.73912 7.51451 6.82124 7.6158 6.82124C7.71705 6.82124 7.79917 6.73914 7.79917 6.63786V0.574545C7.79915 0.257732 7.54141 0 7.2246 0Z" transform="translate(3.08691 3.12549) scale(4)" fill="#0E0519"/>
<path d="M4.55461 3.32838C4.38418 3.31138 4.21385 3.35969 4.07903 3.46205C3.97164 3.28185 3.78852 3.15402 3.57665 3.13279C3.40618 3.11582 3.23587 3.16413 3.10108 3.26646C2.99369 3.08627 2.81057 2.95843 2.5987 2.9372C2.46855 2.92421 2.33858 2.94928 2.22438 3.0074V0.672257C2.22438 0.482663 2.14373 0.300915 2.00304 0.173627C1.86248 0.0464535 1.67307 -0.0156237 1.48334 0.00336084C1.14485 0.0372585 0.879703 0.343321 0.879703 0.700162V3.04121L0.34068 3.58023C0.0542419 3.86667 -0.0613807 4.27307 0.0314148 4.6674L0.440635 6.40659C0.606441 7.11133 1.22788 7.60351 1.95185 7.60351H3.60572C4.46177 7.60351 5.15822 6.90708 5.15822 6.05101V4.02522C5.15825 3.66834 4.8931 3.36227 4.55461 3.32838ZM4.7915 6.05097C4.7915 6.70479 4.25957 7.23672 3.60575 7.23672H1.95187C1.39892 7.23672 0.92426 6.8608 0.797612 6.32254L0.388393 4.58335C0.324898 4.31356 0.404015 4.03547 0.599991 3.8395L0.879703 3.55978V4.19286C0.879703 4.29412 0.961794 4.37623 1.06308 4.37623C1.16436 4.37623 1.24645 4.29414 1.24645 4.19286V0.700139C1.24645 0.529393 1.36655 0.3836 1.51992 0.368276C1.608 0.359424 1.69224 0.386917 1.75702 0.445563C1.82099 0.503455 1.85768 0.586095 1.85768 0.67228V3.89951C1.85768 4.00077 1.93977 4.08289 2.04105 4.08289C2.14234 4.08289 2.22443 4.0008 2.22443 3.89951V3.60612C2.22443 3.51994 2.26109 3.4373 2.32509 3.37941C2.38991 3.32076 2.47411 3.29324 2.56219 3.30212C2.71553 3.31747 2.83566 3.46326 2.83566 3.63401V4.09506C2.83566 4.19631 2.91775 4.27843 3.01903 4.27843C3.12029 4.27843 3.2024 4.19634 3.2024 4.09506V3.80166C3.2024 3.71548 3.23907 3.63284 3.30307 3.57495C3.36789 3.5163 3.45211 3.48881 3.54017 3.49766C3.69351 3.51301 3.81364 3.6588 3.81364 3.82955V4.29062C3.81364 4.39188 3.89573 4.47399 3.99701 4.47399C4.09827 4.47399 4.18038 4.3919 4.18038 4.29062V3.99723C4.18038 3.91104 4.21705 3.8284 4.28105 3.77051C4.34587 3.71189 4.43002 3.68435 4.51815 3.69325C4.67149 3.70857 4.79162 3.85436 4.79162 4.02511V6.05097H4.7915Z" transform="translate(20.6924 19.5554) scale(4)" fill="#0E0519"/>
</svg>
