<svg width="52" height="52" viewBox="0 0 52 52" fill="none" xmlns="http://www.w3.org/2000/svg">
<path d="M11.7217 4.00906L8.01367 0.301008C7.61232 -0.100336 6.95927 -0.100336 6.55792 0.301008L0.771152 6.0878C0.570491 6.28849 0.470149 6.55208 0.470149 6.81568C0.470149 7.07927 0.570491 7.34287 0.771152 7.54355L1.70152 8.47392L0.679944 9.49549C0.634083 9.54135 0.611163 9.60144 0.611163 9.66153C0.611163 9.72163 0.634083 9.78172 0.679944 9.82758C0.771645 9.91928 0.920338 9.9193 1.01204 9.82758L2.03361 8.80601L2.4591 9.23152L0.0687811 11.6219C0.0229192 11.6677 0 11.7278 0 11.7879C0 11.848 0.0229192 11.9081 0.0687811 11.9539C0.160481 12.0456 0.309175 12.0456 0.400898 11.9539L2.79124 9.56361L4.47918 11.2516C4.88055 11.6529 5.53358 11.6529 5.93493 11.2516L11.7217 5.46478C11.9161 5.27039 12.0232 5.01187 12.0232 4.73693C12.0232 4.46197 11.9161 4.20347 11.7217 4.00906ZM5.03643 11.0562C4.95405 11.03 4.87649 10.9847 4.81125 10.9195L1.10325 7.21146C0.956924 7.06511 0.909207 6.85736 0.959108 6.67051H5.03643V11.0562ZM4.18759 6.20085L4.88393 5.50452C4.97563 5.41281 4.97565 5.26412 4.88393 5.17242C4.79221 5.08072 4.64354 5.0807 4.55184 5.17242L3.52338 6.20085H2.83921L4.9622 4.07786C5.05387 3.98616 5.0539 3.83747 4.9622 3.74575C4.8705 3.65405 4.7218 3.65405 4.63008 3.74575L2.17502 6.20085H1.32232L6.67097 0.852173V5.64114C6.67097 5.94977 6.41989 6.20085 6.11126 6.20085H4.18759ZM11.3896 5.13271L5.60283 10.9195C5.57299 10.9493 5.54039 10.9747 5.50611 10.9964V6.67051H6.11128C6.67886 6.67051 7.14065 6.20874 7.14065 5.64114V5.03596H9.83234L8.47346 6.39487C8.42762 6.4407 8.40468 6.50082 8.40468 6.56091C8.40468 6.62103 8.4276 6.6811 8.47346 6.72696C8.56516 6.81866 8.71386 6.81866 8.80558 6.72696L10.4964 5.03615C10.4964 5.0361 10.4965 5.03603 10.4965 5.03599H11.467C11.4451 5.07058 11.4193 5.10305 11.3896 5.13271ZM7.14063 4.56631V0.488988C7.3275 0.439087 7.53525 0.486804 7.68158 0.633126L11.3896 4.34115C11.4538 4.40529 11.5003 4.48229 11.527 4.56631H7.14063Z" transform="translate(1.00586 0.238159) scale(4)" fill="#0E0519"/>
<path d="M0.400851 0.0688047C0.357173 0.0248918 0.296588 -1.14662e-07 0.234828 -1.14662e-07C0.172833 -1.14662e-07 0.112482 0.0248918 0.0688045 0.0688047C0.0251265 0.112483 2.86655e-08 0.172833 2.86655e-08 0.234828C2.86655e-08 0.296588 0.0251265 0.357173 0.0688045 0.400851C0.112482 0.444529 0.172833 0.469656 0.234828 0.469656C0.296588 0.469656 0.357173 0.444529 0.400851 0.400851C0.444529 0.357173 0.469656 0.296588 0.469656 0.234828C0.469656 0.172833 0.444529 0.112483 0.400851 0.0688047Z" transform="translate(21.5508 12.6475) scale(4)" fill="#0E0519"/>
<path d="M0.400851 0.0688047C0.357173 0.0251267 0.296588 3.15321e-07 0.234828 3.15321e-07C0.173068 3.15321e-07 0.112483 0.0251267 0.0688046 0.0688047C0.0251266 0.112483 0 0.173069 0 0.234828C0 0.296588 0.0251266 0.357173 0.0688046 0.400851C0.112483 0.444529 0.173068 0.469656 0.234828 0.469656C0.296823 0.469656 0.357173 0.444529 0.400851 0.400851C0.444764 0.357173 0.469656 0.296588 0.469656 0.234828C0.469656 0.173069 0.444764 0.112483 0.400851 0.0688047Z" transform="translate(1.00977 40.3853) scale(4)" fill="#0E0519"/>
<path d="M1.46739 0.0687755C1.37567 -0.0229249 1.22698 -0.0229249 1.13528 0.0687755L0.0687811 1.13527C0.0229427 1.18111 -2.86655e-08 1.24122 -2.86655e-08 1.30132C-2.86655e-08 1.36141 0.0229192 1.42153 0.0687811 1.46739C0.160505 1.55909 0.309198 1.55909 0.400898 1.46739L1.46739 0.400893C1.55907 0.309169 1.55907 0.160476 1.46739 0.0687755Z" transform="translate(7.06738 42.184) scale(4)" fill="#0E0519"/>
</svg>
