<svg width="48" height="48" viewBox="0 0 48 48" fill="none" xmlns="http://www.w3.org/2000/svg">
<path d="M4.45641 -2.83331e-08H0.742735C0.333117 -2.83331e-08 0 0.333117 0 0.742735V5.38483C0 5.72983 0.237489 6.0182 0.557051 6.1012V8.54145H0.928419V6.12756H3.34231C3.44499 6.12756 3.52799 6.04438 3.52799 5.94188V4.82778C3.52799 4.4824 3.76492 4.19125 4.08504 4.10844V8.54145H4.45641V6.12756C4.86603 6.12756 5.19914 5.79445 5.19914 5.38483V0.742735C5.19914 0.333117 4.86603 -2.83331e-08 4.45641 -2.83331e-08ZM4.82778 5.38483C4.82778 5.58964 4.66122 5.7562 4.45641 5.7562V3.89936C4.45641 3.79686 4.37341 3.71367 4.27073 3.71367C3.6563 3.71367 3.15662 4.21335 3.15662 4.82778V5.7562H0.742735C0.537926 5.7562 0.371367 5.58964 0.371367 5.38483V0.742735C0.371367 0.537926 0.537926 0.371367 0.742735 0.371367H4.45641C4.66122 0.371367 4.82778 0.537926 4.82778 0.742735V5.38483Z" transform="translate(13.6328 12.8361) scale(4)" fill="#0E0519"/>
<path d="M11.4359 5.60157L10.376 4.83228L11.0619 3.71669C11.0931 3.666 11.0981 3.60342 11.0753 3.54828C11.0525 3.49313 11.0047 3.45246 10.9468 3.43872L9.67282 3.13532L9.87856 1.84203C9.88803 1.78335 9.86853 1.72356 9.82657 1.6816C9.7846 1.63945 9.72518 1.61995 9.66614 1.62942L8.37266 1.83516L8.06926 0.561183C8.05552 0.503249 8.01467 0.455529 7.9597 0.432689C7.90456 0.40985 7.84179 0.414678 7.79147 0.446059L6.6757 1.13197L5.9066 0.0722774C5.8366 -0.0240925 5.67598 -0.0240925 5.60598 0.0722774L4.83669 1.13197L3.72092 0.445873C3.67022 0.414678 3.60746 0.40985 3.55269 0.432504C3.49772 0.455343 3.45687 0.503064 3.44313 0.560997L3.13991 1.83497L1.84644 1.62905C1.78721 1.61995 1.72779 1.63926 1.68601 1.68123C1.64386 1.72338 1.62455 1.78298 1.63402 1.84166L1.83975 3.13494L0.565593 3.43835C0.507659 3.45209 0.459939 3.49276 0.437099 3.5479C0.41426 3.60305 0.419274 3.66544 0.450469 3.71632L1.13638 4.83209L0.0765017 5.60138C0.0284096 5.63648 0 5.69237 0 5.75178C0 5.8112 0.0284096 5.86709 0.0766874 5.902L1.13638 6.67129L0.450469 7.78688C0.419274 7.83757 0.41426 7.90015 0.437099 7.95529C0.459939 8.01044 0.507659 8.05111 0.565593 8.06485L1.83957 8.36807L1.63383 9.66136C1.62436 9.72003 1.64386 9.77982 1.68582 9.82178C1.72779 9.86375 1.78665 9.88306 1.84625 9.87396L3.30963 9.64112L3.25132 9.2742L2.04066 9.46694L2.23322 8.25629C2.24844 8.16029 2.18735 8.06893 2.09284 8.04646L0.900937 7.76274L1.54266 6.71901C1.59354 6.63638 1.57218 6.5285 1.49345 6.47149L0.501717 5.75178L1.49383 5.0317C1.57237 4.9747 1.59372 4.86682 1.54285 4.78419L0.901123 3.74046L2.09321 3.45673C2.18773 3.43427 2.24882 3.34291 2.23359 3.24691L2.04104 2.03625L3.25169 2.22899C3.34565 2.24348 3.43905 2.18294 3.46152 2.08862L3.74524 0.896713L4.78897 1.53862C4.87141 1.5895 4.97929 1.56777 5.03649 1.48942L5.7562 0.497493L6.47609 1.48942C6.53328 1.56777 6.64153 1.5895 6.72361 1.53862L7.76734 0.896899L8.05125 2.0888C8.07353 2.18313 8.16414 2.24385 8.26107 2.22918L9.47173 2.03644L9.27917 3.24691C9.26395 3.34291 9.32504 3.43427 9.41955 3.45673L10.6115 3.74046L9.96973 4.78419C9.91885 4.86682 9.94021 4.9747 10.0188 5.0317L11.0107 5.75178L10.0186 6.47187C9.94002 6.52887 9.91867 6.63675 9.96954 6.71938L10.6113 7.76311L9.41918 8.04683C9.32467 8.0693 9.26357 8.16066 9.2788 8.25666L9.47135 9.46731L8.2607 9.27458L8.20239 9.64149L9.66577 9.87433C9.67561 9.87582 9.68526 9.87656 9.69492 9.87656C9.74375 9.87656 9.79129 9.85725 9.8262 9.82216C9.86835 9.78001 9.88766 9.7204 9.87819 9.66173L9.67245 8.36844L10.9466 8.06503C11.0045 8.05129 11.0523 8.01063 11.0751 7.95548C11.0979 7.90033 11.0929 7.83794 11.0617 7.78706L10.3758 6.67129L11.4357 5.902C11.484 5.86709 11.5124 5.8112 11.5124 5.75178C11.5124 5.69237 11.484 5.63648 11.4359 5.60157Z" transform="translate(1.00586 1.71265) scale(4)" fill="#0E0519"/>
<path d="M0.371367 0H0V0.371367H0.371367V0Z" transform="translate(16.6035 15.807) scale(4)" fill="#0E0519"/>
<path d="M0.371367 0H0V0.371367H0.371367V0Z" transform="translate(16.6035 18.778) scale(4)" fill="#0E0519"/>
<path d="M0.371367 0H0V0.371367H0.371367V0Z" transform="translate(16.6035 21.7488) scale(4)" fill="#0E0519"/>
</svg>
