<svg width="140" height="112" viewBox="0 0 140 112" fill="none" xmlns="http://www.w3.org/2000/svg">
<path d="M18.4857 16.598H0.650909C0.325496 16.598 0 16.3376 0 15.9471V3.97049C0 1.8225 1.75746 0 3.97049 0H5.79299C5.92314 0 6.05337 0.0651155 6.18352 0.130149C8.20128 1.49708 11.0002 1.49708 13.018 0.130149C13.1482 0.0650329 13.2784 0 13.4086 0H15.2311C17.4442 0 19.2015 1.75746 19.2015 3.97049V15.9471C19.1366 16.2726 18.8762 16.598 18.4857 16.598ZM1.30182 15.2962H17.8348V3.97049C17.8348 2.47341 16.6632 1.30182 15.1661 1.30182H13.5388C11.1955 2.7989 8.0061 2.7989 5.59781 1.30182H3.97049C2.47341 1.30182 1.30182 2.47341 1.30182 3.97049V15.2962Z" transform="translate(1.40723 43.4976) scale(4)" fill="#0005FF"/>
<path d="" transform="translate(1.40723 43.4976) scale(4)" stroke="#0005FF" stroke-width="3"/>
<path d="M5.14216 10.2842C2.27822 10.2842 -2.26962e-08 7.94098 -2.26962e-08 5.14208C-2.26962e-08 2.34317 2.34326 -6.93494e-09 5.14216 -6.93494e-09C7.94106 -6.93494e-09 10.2843 2.34326 10.2843 5.14216C10.2843 7.94106 8.0061 10.2842 5.14216 10.2842ZM5.14216 1.2367C2.99417 1.2367 1.30182 2.99417 1.30182 5.07704C1.30182 7.15992 3.05928 8.91739 5.14216 8.91739C7.22504 8.91739 8.9825 7.15992 8.9825 5.07704C8.9825 2.99417 7.29015 1.2367 5.14216 1.2367Z" transform="translate(19.1123 1.5791) scale(4)" fill="#0005FF"/>
<path d="" transform="translate(19.1123 1.5791) scale(4)" stroke="#0005FF" stroke-width="3"/>
<path d="M11.2761 0H2.25521C1.01203 0 0 1.01146 0 2.25521V24.2475C0 25.4913 1.01203 26.5027 2.25521 26.5027H11.2761C12.5192 26.5027 13.5313 25.4913 13.5313 24.2475V2.25521C13.5313 1.01146 12.5192 0 11.2761 0ZM12.4037 24.2475C12.4037 24.87 11.8985 25.3751 11.2761 25.3751H2.25521C1.63277 25.3751 1.12761 24.87 1.12761 24.2475V2.25521C1.12761 1.63334 1.63277 1.12761 2.25521 1.12761H11.2761C11.8985 1.12761 12.4037 1.63334 12.4037 2.25521V24.2475Z" transform="translate(84.6875 3.87842) scale(4)" fill="#0005FF"/>
<path d="" transform="translate(84.6875 3.87842) scale(4)" stroke="#0005FF" stroke-width="3"/>
<path d="M5.19093 0H0.563803C0.25202 0 1.7636e-07 0.252584 1.7636e-07 0.563803C1.7636e-07 0.875022 0.25202 1.12761 0.563803 1.12761H5.19093C5.50328 1.12761 5.75474 0.875022 5.75474 0.563803C5.75474 0.252584 5.50215 0 5.19093 0Z" transform="translate(105.88 19.665) scale(4)" fill="#F806A8"/>
<path d="" transform="translate(105.88 19.665) scale(4)" stroke="#F806A8" stroke-width="3"/>
<path d="M2.37569 0.10071L1.59877 1.03042C1.45839 0.953181 1.29939 0.905257 1.128 0.905257C0.914316 0.905257 0.717549 0.975169 0.555737 1.09131L0.477933 1.01633C0.365736 0.90864 0.18701 0.912023 0.0793238 1.02366C-0.0289263 1.13585 -0.0261073 1.31401 0.0860895 1.42226L0.208999 1.54066C0.166713 1.65004 0.141342 1.76788 0.141342 1.89248C0.141342 2.43655 0.583928 2.87913 1.128 2.87913C1.67207 2.87913 2.11465 2.43655 2.11465 1.89248C2.11465 1.72615 2.06955 1.57167 1.99625 1.4341L2.80813 0.462672C2.90792 0.343146 2.89157 0.165548 2.77261 0.0651907C2.65478 -0.0340386 2.47605 -0.018252 2.37569 0.10071ZM1.128 1.18772C1.23061 1.18772 1.32646 1.21197 1.41441 1.25143L1.10488 1.62185L0.770546 1.29936C0.877105 1.23452 0.99494 1.18772 1.128 1.18772ZM1.83275 1.89248C1.83275 2.28094 1.51646 2.59723 1.128 2.59723C0.739537 2.59723 0.423244 2.28094 0.423244 1.89248C0.423244 1.84963 0.440158 1.81185 0.447487 1.77126L0.930666 2.23752C0.983664 2.28827 1.05414 2.31646 1.12687 2.31646C1.13194 2.31646 1.13702 2.31646 1.14153 2.31646C1.2199 2.31195 1.29319 2.27586 1.34281 2.21554L1.78934 1.68105C1.81189 1.74927 1.83275 1.81749 1.83275 1.89248Z" transform="translate(93.4727 14.3506) scale(4)" fill="#F806A8"/>
<path d="" transform="translate(93.4727 14.3506) scale(4)" stroke="#F806A8" stroke-width="3"/>
<path d="M0.986655 0C0.442585 0 -5.16177e-08 0.442585 -5.16177e-08 0.986655C-5.16177e-08 1.53073 0.442585 1.97331 0.986655 1.97331C1.53073 1.97331 1.97331 1.53073 1.97331 0.986655C1.97331 0.442585 1.53073 0 0.986655 0ZM0.986655 1.69141C0.598195 1.69141 0.281901 1.37512 0.281901 0.986655C0.281901 0.598195 0.598195 0.281902 0.986655 0.281902C1.37512 0.281902 1.69141 0.598195 1.69141 0.986655C1.69141 1.37512 1.37568 1.69141 0.986655 1.69141Z" transform="translate(94.0371 37.7432) scale(4)" fill="#0005FF"/>
<path d="" transform="translate(94.0371 37.7432) scale(4)" stroke="#0005FF" stroke-width="3"/>
<path d="M5.19093 0H0.563803C0.25202 0 1.7636e-07 0.252584 1.7636e-07 0.563803C1.7636e-07 0.875022 0.25202 1.12761 0.563803 1.12761H5.19093C5.50328 1.12761 5.75474 0.875022 5.75474 0.563803C5.75474 0.252584 5.50215 0 5.19093 0Z" transform="translate(105.88 39.4341) scale(4)" fill="#0005FF"/>
<path d="" transform="translate(105.88 39.4341) scale(4)" stroke="#0005FF" stroke-width="3"/>
<path d="M0.986655 0C0.442585 0 -5.16177e-08 0.442585 -5.16177e-08 0.986655C-5.16177e-08 1.53073 0.442585 1.97331 0.986655 1.97331C1.53073 1.97331 1.97331 1.53073 1.97331 0.986655C1.97331 0.442585 1.53073 0 0.986655 0ZM0.986655 1.69141C0.598195 1.69141 0.281901 1.37512 0.281901 0.986655C0.281901 0.598195 0.598195 0.281902 0.986655 0.281902C1.37512 0.281902 1.69141 0.598195 1.69141 0.986655C1.69141 1.37512 1.37568 1.69141 0.986655 1.69141Z" transform="translate(94.0381 59.2393) scale(4)" fill="#0005FF"/>
<path d="" transform="translate(94.0381 59.2393) scale(4)" stroke="#0005FF" stroke-width="3"/>
<path d="M5.19093 0H0.563803C0.25202 0 1.7636e-07 0.252584 1.7636e-07 0.563803C1.7636e-07 0.875022 0.25202 1.12761 0.563803 1.12761H5.19093C5.50328 1.12761 5.75474 0.875022 5.75474 0.563803C5.75474 0.252584 5.50215 0 5.19093 0Z" transform="translate(105.88 60.9307) scale(4)" fill="#0005FF"/>
<path d="" transform="translate(105.88 60.9307) scale(4)" stroke="#0005FF" stroke-width="3"/>
<path d="M0.986655 0C0.442585 0 -5.16177e-08 0.442585 -5.16177e-08 0.986655C-5.16177e-08 1.53073 0.442585 1.97331 0.986655 1.97331C1.53073 1.97331 1.97331 1.53073 1.97331 0.986655C1.97331 0.442585 1.53073 0 0.986655 0ZM0.986655 1.69141C0.598195 1.69141 0.281901 1.37512 0.281901 0.986655C0.281901 0.598195 0.598195 0.281902 0.986655 0.281902C1.37512 0.281902 1.69141 0.598195 1.69141 0.986655C1.69141 1.37512 1.37568 1.69141 0.986655 1.69141Z" transform="translate(94.0381 80.7354) scale(4)" fill="#0005FF"/>
<path d="" transform="translate(94.0381 80.7354) scale(4)" stroke="#0005FF" stroke-width="3"/>
<path d="M5.19093 0H0.563803C0.25202 0 1.7636e-07 0.252584 1.7636e-07 0.563803C1.7636e-07 0.875022 0.25202 1.12761 0.563803 1.12761H5.19093C5.50328 1.12761 5.75474 0.875022 5.75474 0.563803C5.75474 0.252584 5.50215 0 5.19093 0Z" transform="translate(105.88 82.4263) scale(4)" fill="#0005FF"/>
<path d="" transform="translate(105.88 82.4263) scale(4)" stroke="#0005FF" stroke-width="3"/>
</svg>
