<svg width="164" height="160" viewBox="0 0 164 160" fill="none" xmlns="http://www.w3.org/2000/svg">
<path d="M17.6752 0.949973H9.70117V0.575736C9.70117 0.257788 9.44338 0 9.12543 0C8.80748 0 8.5497 0.257788 8.5497 0.575736V0.949973H0.575674C0.257726 0.949973 0 1.20776 0 1.52571V3.42566C0 3.7436 0.257726 4.00139 0.575674 4.00139H0.949912V13.8754C0.949912 14.1933 1.2077 14.4511 1.52565 14.4511H7.97396L5.81494 17.3298C5.62419 17.5842 5.67569 17.9451 5.9301 18.1358C6.03364 18.2136 6.15482 18.251 6.27508 18.251C6.4501 18.251 6.62296 18.1715 6.73609 18.0207L8.5497 15.6026V17.6753C8.5497 17.9932 8.80748 18.251 9.12543 18.251C9.44338 18.251 9.70117 17.9932 9.70117 17.6753V15.6026L11.5148 18.0207C11.6279 18.1715 11.8007 18.251 11.9758 18.251C12.096 18.251 12.2172 18.2135 12.3208 18.1358C12.5752 17.9451 12.6267 17.5841 12.4359 17.3298L10.2769 14.4511H16.7252C17.0432 14.4511 17.3009 14.1933 17.3009 13.8754V4.00139H17.6752C17.9931 4.00139 18.2509 3.7436 18.2509 3.42566V1.52571C18.2509 1.20776 17.9931 0.949973 17.6752 0.949973ZM1.15141 2.84992V2.10144H17.0994V2.84992H1.15141ZM16.1495 13.2996H2.10138V4.00139H16.1494V13.2996H16.1495Z" transform="translate(1.89062 41.9763) scale(4)" fill="#0005FF"/>
<path d="" transform="translate(1.89062 41.9763) scale(4)" stroke="#0005FF" stroke-width="3"/>
<path d="M0.575736 1.15147H9.12549C9.44344 1.15147 9.70123 0.893684 9.70123 0.575736C9.70123 0.257788 9.44344 -2.13789e-07 9.12549 -2.13789e-07H0.575736C0.257788 -2.13789e-07 -9.00163e-08 0.257788 -9.00163e-08 0.575736C-9.00163e-08 0.893684 0.257788 1.15147 0.575736 1.15147Z" transform="translate(17.0898 72.3757) scale(4)" fill="#F806A8"/>
<path d="" transform="translate(17.0898 72.3757) scale(4)" stroke="#F806A8" stroke-width="3"/>
<path d="M0.575736 1.15147H2.47568C2.79363 1.15147 3.05142 0.893745 3.05142 0.575736C3.05142 0.257788 2.79363 -1.68781e-07 2.47568 -1.68781e-07H0.575736C0.257788 -1.68781e-07 -9.00163e-08 0.257788 -9.00163e-08 0.575736C-9.00163e-08 0.893745 0.257788 1.15147 0.575736 1.15147Z" transform="translate(17.0898 64.7759) scale(4)" fill="#F806A8"/>
<path d="" transform="translate(17.0898 64.7759) scale(4)" stroke="#F806A8" stroke-width="3"/>
<path d="M0.575736 1.15147H6.27557C6.59352 1.15147 6.85131 0.893684 6.85131 0.575736C6.85131 0.257788 6.59352 -2.25041e-07 6.27557 -2.25041e-07H0.575736C0.257788 -2.25041e-07 -9.00163e-08 0.257788 -9.00163e-08 0.575736C-9.00163e-08 0.893684 0.257788 1.15147 0.575736 1.15147Z" transform="translate(17.0898 79.9753) scale(4)" fill="#F806A8"/>
<path d="" transform="translate(17.0898 79.9753) scale(4)" stroke="#F806A8" stroke-width="3"/>
<path d="M17.1012 15.3549H0.602161C0.301119 15.3549 0 15.114 0 14.7528V3.67313C0 1.68601 1.62584 5.22577e-07 3.67313 5.22577e-07H5.35914C5.47954 5.22577e-07 5.60002 0.0602394 5.72042 0.120402C7.58707 1.38496 10.1764 1.38496 12.0431 0.120402C12.1635 0.0601629 12.284 5.22577e-07 12.4044 5.22577e-07H14.0904C16.1377 5.22577e-07 17.7635 1.62584 17.7635 3.67313V14.7528C17.7034 15.0539 17.4625 15.3549 17.1012 15.3549ZM1.20432 14.1506H16.4991V3.67313C16.4991 2.28817 15.4152 1.20432 14.0303 1.20432H12.5248C10.3571 2.58929 7.4065 2.58929 5.17857 1.20432H3.67313C2.28817 1.20432 1.20432 2.28817 1.20432 3.67313V14.1506Z" transform="translate(90.1914 41.9763) scale(4)" fill="#0005FF"/>
<path d="" transform="translate(90.1914 41.9763) scale(4)" stroke="#0005FF" stroke-width="3"/>
<path d="M4.75705 9.51403C2.1076 9.51403 -2.09964e-08 7.34626 -2.09964e-08 4.75698C-2.09964e-08 2.16769 2.16777 -6.41556e-09 4.75705 -6.41556e-09C7.34634 -6.41556e-09 9.5141 2.16777 9.5141 4.75705C9.5141 7.34634 7.4065 9.51403 4.75705 9.51403ZM4.75705 1.14408C2.76993 1.14408 1.20432 2.76993 1.20432 4.69681C1.20432 6.6237 2.83017 8.24954 4.75705 8.24954C6.68394 8.24954 8.30978 6.6237 8.30978 4.69681C8.30978 2.76993 6.74418 1.14408 4.75705 1.14408Z" transform="translate(106.57 3.19727) scale(4)" fill="#0005FF"/>
<path d="" transform="translate(106.57 3.19727) scale(4)" stroke="#0005FF" stroke-width="3"/>
<path d="M10.4173 14.3916H0.602161C0.301119 14.3916 4.66586e-09 14.1507 4.66586e-09 13.7894V0.60216C4.66586e-09 0.301118 0.24088 1.11981e-07 0.602161 1.11981e-07H10.4173C10.7184 1.11981e-07 11.0195 0.240879 11.0195 0.60216V13.7894C10.9592 14.0904 10.7184 14.3916 10.4173 14.3916ZM1.14408 13.1872H9.75491V1.20432H1.14408V13.1872Z" transform="translate(103.68 98.5786) scale(4)" fill="#0005FF"/>
<path d="" transform="translate(103.68 98.5786) scale(4)" stroke="#0005FF" stroke-width="3"/>
<path d="M0.602161 9.21299C0.301119 9.21299 -2.05298e-07 8.97211 -2.05298e-07 8.61082V0.602161C-2.05298e-07 0.301119 0.24088 7.46538e-08 0.602161 7.46538e-08C0.963443 7.46538e-08 1.20432 0.24088 1.20432 0.602161V8.61082C1.20432 8.91194 0.903204 9.21299 0.602161 9.21299Z" transform="translate(141.254 66.5439) scale(4)" fill="#0005FF"/>
<path d="" transform="translate(141.254 66.5439) scale(4)" stroke="#0005FF" stroke-width="3"/>
<path d="M0.602161 9.21299C0.301119 9.21299 1.37643e-07 8.97211 1.37643e-07 8.61082V0.602161C1.37643e-07 0.301119 0.24088 7.46538e-08 0.602161 7.46538e-08C0.963443 7.46538e-08 1.20432 0.24088 1.20432 0.602161V8.61082C1.20432 8.91194 0.963443 9.21299 0.602161 9.21299Z" transform="translate(105.125 66.5439) scale(4)" fill="#0005FF"/>
<path d="" transform="translate(105.125 66.5439) scale(4)" stroke="#0005FF" stroke-width="3"/>
<path d="M0.602161 8.12914C0.301119 8.12914 1.11981e-07 7.88826 1.11981e-07 7.52698V0.602161C1.11981e-07 0.301119 0.24088 1.13847e-06 0.602161 1.13847e-06C0.963443 1.13847e-06 1.20432 0.24088 1.20432 0.602161V7.52698C1.20432 7.82802 0.903204 8.12914 0.602161 8.12914Z" transform="translate(123.189 123.628) scale(4)" fill="#0005FF"/>
<path d="" transform="translate(123.189 123.628) scale(4)" stroke="#0005FF" stroke-width="3"/>
<path d="M0 1.20432H25.8087V0H0V1.20432Z" transform="translate(1.89062 112.572) scale(4)" fill="#0005FF"/>
<path d="" transform="translate(1.89062 112.572) scale(4)" stroke="#0005FF" stroke-width="3"/>
</svg>
