<svg width="80" height="80" viewBox="0 0 80 80" fill="none" xmlns="http://www.w3.org/2000/svg">
<path d="M17.3462 0H1.38385C0.619511 0 0 0.600606 0 1.3419V17.3867C0 18.128 0.619729 18.7292 1.38385 18.7292H17.3462C18.1104 18.7292 18.7292 18.1277 18.7292 17.3867V1.3419C18.7292 0.600824 18.1104 0 17.3462 0ZM5.67815 15.6776H2.84831V7.2216H5.67815V15.6776ZM4.26351 6.06637H4.24448C3.29551 6.06637 2.68036 5.41739 2.68036 4.60489C2.68036 3.77603 3.31358 3.14464 4.28137 3.14464C5.24924 3.14464 5.84458 3.77585 5.86339 4.60489C5.86339 5.41756 5.24945 6.06637 4.26351 6.06637ZM15.8789 15.6776H13.05V11.1533C13.05 10.0165 12.6401 9.24083 11.617 9.24083C10.8344 9.24083 10.3698 9.76415 10.1658 10.2694C10.0902 10.4498 10.0715 10.7022 10.0715 10.9543V15.6774H7.24311C7.24311 15.6774 7.28012 8.01454 7.24311 7.22147H10.0719V8.42029C10.4475 7.84424 11.1185 7.02251 12.6208 7.02251C14.4828 7.02251 15.8789 8.23039 15.8789 10.8289V15.6776ZM10.0537 8.44715C10.0585 8.43923 10.0652 8.42969 10.0719 8.42042V8.44715H10.0537Z" transform="translate(3.57812 1.37012) scale(4)" fill="white"/>
</svg>
