<svg width="176" height="160" viewBox="0 0 176 160" fill="none" xmlns="http://www.w3.org/2000/svg">
<path d="M17.1012 15.3549H0.602161C0.301119 15.3549 0 15.114 0 14.7528V3.67313C0 1.68601 1.62584 5.22577e-07 3.67313 5.22577e-07H5.35914C5.47954 5.22577e-07 5.60002 0.0602394 5.72042 0.120402C7.58707 1.38496 10.1764 1.38496 12.0431 0.120402C12.1635 0.0601629 12.284 5.22577e-07 12.4044 5.22577e-07H14.0904C16.1377 5.22577e-07 17.7635 1.62584 17.7635 3.67313V14.7528C17.7034 15.0539 17.4625 15.3549 17.1012 15.3549ZM1.20432 14.1506H16.4991V3.67313C16.4991 2.28817 15.4152 1.20432 14.0303 1.20432H12.5248C10.3571 2.58929 7.4065 2.58929 5.17857 1.20432H3.67313C2.28817 1.20432 1.20432 2.28817 1.20432 3.67313V14.1506Z" transform="translate(102.879 41.9766) scale(4)" fill="#0005FF"/>
<path d="" transform="translate(102.879 41.9766) scale(4)" stroke="#0005FF" stroke-width="3"/>
<path d="M4.75705 9.51403C2.1076 9.51403 -2.09964e-08 7.34626 -2.09964e-08 4.75698C-2.09964e-08 2.16769 2.16777 -6.41556e-09 4.75705 -6.41556e-09C7.34634 -6.41556e-09 9.5141 2.16777 9.5141 4.75705C9.5141 7.34634 7.4065 9.51403 4.75705 9.51403ZM4.75705 1.14408C2.76993 1.14408 1.20432 2.76993 1.20432 4.69681C1.20432 6.6237 2.83017 8.24954 4.75705 8.24954C6.68394 8.24954 8.30978 6.6237 8.30978 4.69681C8.30978 2.76993 6.74418 1.14408 4.75705 1.14408Z" transform="translate(119.257 3.19727) scale(4)" fill="#0005FF"/>
<path d="" transform="translate(119.257 3.19727) scale(4)" stroke="#0005FF" stroke-width="3"/>
<path d="M10.4173 14.3916H0.602161C0.301119 14.3916 4.66586e-09 14.1507 4.66586e-09 13.7894V0.60216C4.66586e-09 0.301118 0.24088 1.11981e-07 0.602161 1.11981e-07H10.4173C10.7184 1.11981e-07 11.0195 0.240879 11.0195 0.60216V13.7894C10.9592 14.0904 10.7184 14.3916 10.4173 14.3916ZM1.14408 13.1872H9.75491V1.20432H1.14408V13.1872Z" transform="translate(116.367 98.5786) scale(4)" fill="#0005FF"/>
<path d="" transform="translate(116.367 98.5786) scale(4)" stroke="#0005FF" stroke-width="3"/>
<path d="M0.602161 9.21299C0.301119 9.21299 -2.05298e-07 8.97211 -2.05298e-07 8.61082V0.602161C-2.05298e-07 0.301119 0.24088 7.46538e-08 0.602161 7.46538e-08C0.963443 7.46538e-08 1.20432 0.24088 1.20432 0.602161V8.61082C1.20432 8.91194 0.903204 9.21299 0.602161 9.21299Z" transform="translate(153.941 66.5439) scale(4)" fill="#0005FF"/>
<path d="" transform="translate(153.941 66.5439) scale(4)" stroke="#0005FF" stroke-width="3"/>
<path d="M0.602161 9.21299C0.301119 9.21299 1.37643e-07 8.97211 1.37643e-07 8.61082V0.602161C1.37643e-07 0.301119 0.24088 7.46538e-08 0.602161 7.46538e-08C0.963443 7.46538e-08 1.20432 0.24088 1.20432 0.602161V8.61082C1.20432 8.91194 0.963443 9.21299 0.602161 9.21299Z" transform="translate(117.812 66.5439) scale(4)" fill="#0005FF"/>
<path d="" transform="translate(117.812 66.5439) scale(4)" stroke="#0005FF" stroke-width="3"/>
<path d="M0.602161 8.12914C0.301119 8.12914 1.11981e-07 7.88826 1.11981e-07 7.52698V0.602161C1.11981e-07 0.301119 0.24088 1.13847e-06 0.602161 1.13847e-06C0.963443 1.13847e-06 1.20432 0.24088 1.20432 0.602161V7.52698C1.20432 7.82802 0.903204 8.12914 0.602161 8.12914Z" transform="translate(135.877 123.628) scale(4)" fill="#0005FF"/>
<path d="" transform="translate(135.877 123.628) scale(4)" stroke="#0005FF" stroke-width="3"/>
<path d="M0 -4.65648e-07V11.2454H4.99711V-4.65648e-07H0ZM3.75355 9.99422H1.25118V1.24356H3.75355V9.99422Z" transform="translate(0 111.163) scale(4)" fill="#0005FF"/>
<path d="" transform="translate(0 111.163) scale(4)" stroke="#0005FF" stroke-width="3"/>
<path d="M1.16412e-07 4.65648e-07V13.7478H4.99711V4.65648e-07H1.16412e-07ZM3.75355 12.5042H1.25118V1.25118H3.75355V12.5042Z" transform="translate(24.9932 101.154) scale(4)" fill="#0005FF"/>
<path d="" transform="translate(24.9932 101.154) scale(4)" stroke="#0005FF" stroke-width="3"/>
<path d="M-4.65648e-07 2.32824e-07V16.2501H4.99711V2.32824e-07H-4.65648e-07ZM3.74592 15.0066H1.24356V1.25119H1.25118H3.74592V15.0066Z" transform="translate(50.0166 91.144) scale(4)" fill="#0005FF"/>
<path d="" transform="translate(50.0166 91.144) scale(4)" stroke="#0005FF" stroke-width="3"/>
<path d="M2.32824e-07 0V18.7525H4.99711V0H2.32824e-07ZM3.75355 17.5013H1.25119V1.25118H3.75355V17.5013Z" transform="translate(75.0098 81.1348) scale(4)" fill="#F806A8"/>
<path d="" transform="translate(75.0098 81.1348) scale(4)" stroke="#F806A8" stroke-width="3"/>
</svg>
