<svg width="80" height="80" viewBox="0 0 80 80" fill="none" xmlns="http://www.w3.org/2000/svg">
<path d="M15.8421 13.6998H14.6088L14.6145 13.1027C14.6145 12.8374 14.876 12.6203 15.1954 12.6203H15.274C15.5942 12.6203 15.8564 12.8374 15.8564 13.1027L15.8421 13.6998ZM11.2158 12.4204C10.9029 12.4204 10.6469 12.5956 10.6469 12.8101V15.7138C10.6469 15.9279 10.9029 16.1027 11.2158 16.1027C11.5299 16.1027 11.7861 15.9279 11.7861 15.7138V12.8101C11.7861 12.5954 11.5299 12.4204 11.2158 12.4204ZM18.7292 10.7961V16.32C18.7292 17.645 17.3505 18.7292 15.6651 18.7292H3.06434C1.37847 18.7292 0 17.645 0 16.32V10.7961C0 9.47114 1.37847 8.38672 3.06434 8.38672H15.6651C17.3505 8.38672 18.7292 9.47114 18.7292 10.7961ZM3.90491 16.9197L3.90391 11.101L5.46592 11.1014V10.2392L1.30205 10.234V11.0816L2.60186 11.0848V16.9197H3.90491ZM8.5872 11.9677H7.2849V15.0749C7.2849 15.5244 7.31761 15.7492 7.2829 15.8284C7.17702 16.0694 6.70105 16.3254 6.5155 15.8545C6.48404 15.772 6.51176 15.5234 6.51126 15.0963L6.50602 11.9677H5.21096L5.21495 15.0472C5.21595 15.5192 5.20222 15.8711 5.21945 16.0313C5.25116 16.3137 5.23992 16.643 5.55432 16.8311C6.14017 17.1828 7.26317 16.7786 7.54411 16.2759L7.54161 16.9174L8.58745 16.9185L8.5872 11.9677ZM12.7533 15.5259L12.7506 12.9398C12.7496 11.9542 11.8648 11.364 10.6639 12.1615L10.6691 10.2388L9.36833 10.2405L9.36209 16.8769L10.4319 16.864L10.5293 16.4507C11.896 17.4955 12.7553 16.7795 12.7533 15.5259ZM16.829 15.1831L15.8526 15.1875C15.8521 15.2197 15.8506 15.257 15.8501 15.2976V15.7517C15.8501 15.9947 15.6091 16.1926 15.3165 16.1926H15.1252C14.832 16.1926 14.591 15.9947 14.591 15.7517V15.7013V15.2018V14.5574H16.827V13.8561C16.827 13.3435 16.8113 12.8311 16.7604 12.5381C16.6003 11.6113 15.039 11.4641 14.2504 11.9386C14.0029 12.0868 13.8139 12.2851 13.704 12.5515C13.5931 12.818 13.5379 13.1822 13.5379 13.6448V15.1869C13.5384 17.7503 17.2748 17.388 16.829 15.1831ZM11.8201 6.81159C11.8873 6.94769 11.9917 7.05799 12.1333 7.14123C12.2731 7.22322 12.4519 7.26442 12.6662 7.26442C12.854 7.26442 13.0203 7.22218 13.1651 7.13498C13.3095 7.0482 13.4311 6.91856 13.5305 6.74562L13.5057 7.1714H14.9574V2.02691H13.8146V6.03079C13.8146 6.24764 13.6004 6.42515 13.3384 6.42515C13.078 6.42515 12.8629 6.24764 12.8629 6.03079V2.02691H11.6703V5.4968C11.6703 5.93881 11.68 6.23349 11.6957 6.3829C11.712 6.53128 11.7529 6.67362 11.8201 6.81159ZM7.421 3.90607C7.421 3.41225 7.47044 3.02663 7.56858 2.74861C7.66747 2.47163 7.84503 2.24896 8.10224 2.08102C8.35871 1.91225 8.68709 1.82776 9.0864 1.82776C9.42227 1.82776 9.70995 1.8827 9.95019 1.99029C10.1917 2.0985 10.378 2.23897 10.5071 2.41232C10.6387 2.58629 10.7281 2.76505 10.7758 2.94797C10.8245 3.13339 10.8484 3.41308 10.8484 3.79037V5.09142C10.8484 5.5686 10.8255 5.91967 10.7808 6.14254C10.7366 6.36605 10.6417 6.57332 10.4946 6.76768C10.3497 6.95997 10.1627 7.10377 9.93595 7.19554C9.70671 7.28815 9.4445 7.33351 9.14833 7.33351C8.81744 7.33351 8.53875 7.29543 8.30901 7.21593C8.07852 7.13686 7.90047 7.01761 7.77361 6.85925C7.6455 6.70067 7.55535 6.50756 7.50091 6.28239C7.44622 6.05743 7.42025 5.71906 7.42025 5.2681L7.421 3.90607ZM8.55798 5.94963C8.55798 6.24098 8.81819 6.47884 9.13509 6.47884C9.45224 6.47884 9.71145 6.24098 9.71145 5.94963V3.21101C9.71145 2.92009 9.45224 2.68223 9.13509 2.68223C8.81819 2.68223 8.55798 2.92009 8.55798 3.21101V5.94963ZM4.54045 7.33247H5.90993L5.91143 3.38686L7.52963 0.00686736H6.03179L5.1715 2.51741L4.29897 0H2.81662L4.5382 3.38873L4.54045 7.33247Z" transform="translate(2.51953 1.37012) scale(4)" fill="white"/>
</svg>
